<svg width="1200" height="800" viewBox="0 0 1200 800" xmlns="http://www.w3.org/2000/svg">
  <defs>
    <linearGradient id="bg2" x1="0%" y1="0%" x2="100%" y2="100%">
      <stop offset="0%" stop-color="#07111f"/>
      <stop offset="100%" stop-color="#12253d"/>
    </linearGradient>
    <linearGradient id="accent2" x1="0%" y1="0%" x2="100%" y2="100%">
      <stop offset="0%" stop-color="#38bdf8"/>
      <stop offset="100%" stop-color="#22c55e"/>
    </linearGradient>
  </defs>
  <rect width="1200" height="800" rx="40" fill="url(#bg2)"/>
  <rect x="56" y="56" width="1088" height="688" rx="30" fill="#0f1c2d" stroke="#38bdf8" stroke-width="4"/>
  <rect x="96" y="108" width="1008" height="70" rx="20" fill="#15253d"/>
  <rect x="124" y="132" width="178" height="24" rx="12" fill="url(#accent2)"/>
  <rect x="940" y="124" width="130" height="38" rx="19" fill="#34d399"/>
  <rect x="96" y="214" width="330" height="170" rx="24" fill="#16253e"/>
  <rect x="128" y="248" width="166" height="18" rx="9" fill="#f8fafc"/>
  <rect x="128" y="280" width="126" height="12" rx="6" fill="#94a3b8"/>
  <rect x="128" y="310" width="208" height="12" rx="6" fill="#64748b"/>
  <rect x="128" y="338" width="148" height="12" rx="6" fill="#64748b"/>
  <rect x="452" y="214" width="320" height="170" rx="24" fill="#16253e"/>
  <path d="M492 346 C534 286 594 288 636 316 C670 338 706 338 744 286" stroke="#38bdf8" stroke-width="16" fill="none" stroke-linecap="round"/>
  <circle cx="534" cy="286" r="10" fill="#f8fafc"/>
  <circle cx="706" cy="286" r="10" fill="#f8fafc"/>
  <rect x="804" y="214" width="300" height="170" rx="24" fill="#16253e"/>
  <rect x="844" y="260" width="116" height="82" rx="18" fill="#22c55e" opacity="0.9"/>
  <rect x="980" y="258" width="94" height="16" rx="8" fill="#e2e8f0"/>
  <rect x="980" y="286" width="74" height="12" rx="6" fill="#64748b"/>
  <rect x="96" y="420" width="1008" height="250" rx="28" fill="#16253e"/>
  <rect x="136" y="466" width="226" height="18" rx="9" fill="#f8fafc"/>
  <rect x="136" y="498" width="188" height="12" rx="6" fill="#94a3b8"/>
  <rect x="136" y="570" width="760" height="18" rx="9" fill="#1e3a5f"/>
  <rect x="136" y="534" width="780" height="20" rx="10" fill="#0ea5e9" opacity="0.86"/>
  <rect x="930" y="456" width="142" height="120" rx="22" fill="#22c55e" opacity="0.8"/>
  <circle cx="1000" cy="516" r="44" fill="#f8fafc" opacity="0.95"/>
  <path d="M1000 480 L1022 516 L1000 552" stroke="#0f172a" stroke-width="12" stroke-linecap="round" stroke-linejoin="round" fill="none"/>
</svg>
