<svg width="1200" height="800" viewBox="0 0 1200 800" xmlns="http://www.w3.org/2000/svg">
  <defs>
    <linearGradient id="bg3" x1="0%" y1="0%" x2="100%" y2="100%">
      <stop offset="0%" stop-color="#061320"/>
      <stop offset="100%" stop-color="#10253d"/>
    </linearGradient>
    <linearGradient id="accent3" x1="0%" y1="0%" x2="100%" y2="100%">
      <stop offset="0%" stop-color="#38bdf8"/>
      <stop offset="100%" stop-color="#5eead4"/>
    </linearGradient>
  </defs>
  <rect width="1200" height="800" rx="40" fill="url(#bg3)"/>
  <rect x="56" y="56" width="1088" height="688" rx="30" fill="#0d1b2d" stroke="#2dd4bf" stroke-width="4"/>
  <circle cx="930" cy="210" r="140" fill="#38bdf8" opacity="0.16"/>
  <circle cx="252" cy="560" r="182" fill="#34d399" opacity="0.16"/>
  <rect x="120" y="176" width="450" height="270" rx="28" fill="#13253f"/>
  <rect x="156" y="220" width="240" height="24" rx="12" fill="#2dd4bf"/>
  <rect x="156" y="262" width="198" height="16" rx="8" fill="#69d4ff"/>
  <rect x="156" y="296" width="220" height="16" rx="8" fill="#69d4ff" opacity="0.75"/>
  <rect x="156" y="330" width="172" height="16" rx="8" fill="#69d4ff" opacity="0.5"/>
  <path d="M390 390 C442 332 514 332 566 390 C602 430 602 486 566 528 C514 586 442 586 390 528 C354 486 354 430 390 390Z" fill="url(#accent3)" opacity="0.95"/>
  <circle cx="478" cy="410" r="74" fill="#f8fafc" opacity="0.96"/>
  <path d="M468 390 L498 420 L468 450" stroke="#0f172a" stroke-width="16" stroke-linecap="round" stroke-linejoin="round" fill="none"/>
  <rect x="620" y="176" width="460" height="270" rx="28" fill="#13253f"/>
  <rect x="658" y="220" width="220" height="24" rx="12" fill="#f8fafc"/>
  <rect x="658" y="260" width="180" height="14" rx="7" fill="#cbd5e1"/>
  <rect x="658" y="294" width="220" height="14" rx="7" fill="#94a3b8"/>
  <rect x="658" y="332" width="166" height="14" rx="7" fill="#64748b"/>
  <rect x="898" y="212" width="132" height="126" rx="24" fill="#0ea5e9"/>
  <rect x="120" y="492" width="960" height="156" rx="28" fill="#0d1524"/>
  <text x="164" y="556" font-family="Arial, sans-serif" font-size="52" font-weight="700" fill="#f8fafc">Open Weather 2025</text>
  <text x="164" y="600" font-family="Arial, sans-serif" font-size="28" fill="#7dd3fc">Responsive Weather Dashboard</text>
  <rect x="164" y="620" width="720" height="16" rx="8" fill="#1e3a5f"/>
</svg>
