<svg width="1200" height="800" viewBox="0 0 1200 800" xmlns="http://www.w3.org/2000/svg">
  <defs>
    <linearGradient id="bg1" x1="0%" y1="0%" x2="100%" y2="100%">
      <stop offset="0%" stop-color="#08111e"/>
      <stop offset="100%" stop-color="#14253f"/>
    </linearGradient>
    <linearGradient id="accent1" x1="0%" y1="0%" x2="100%" y2="100%">
      <stop offset="0%" stop-color="#22d3ee"/>
      <stop offset="100%" stop-color="#10b981"/>
    </linearGradient>
  </defs>
  <rect width="1200" height="800" rx="40" fill="url(#bg1)"/>
  <rect x="56" y="56" width="1088" height="688" rx="30" fill="#0f1c2d" stroke="#2dd4bf" stroke-width="4"/>
  <rect x="96" y="108" width="1008" height="72" rx="20" fill="#16253e"/>
  <rect x="124" y="132" width="168" height="24" rx="12" fill="url(#accent1)"/>
  <rect x="320" y="132" width="92" height="16" rx="8" fill="#7dd3fc" opacity="0.85"/>
  <rect x="440" y="132" width="92" height="16" rx="8" fill="#7dd3fc" opacity="0.65"/>
  <rect x="560" y="132" width="92" height="16" rx="8" fill="#7dd3fc" opacity="0.65"/>
  <rect x="940" y="123" width="128" height="36" rx="18" fill="#0ea5e9"/>
  <rect x="96" y="214" width="420" height="246" rx="24" fill="#16253e"/>
  <rect x="128" y="246" width="232" height="24" rx="12" fill="#f8fafc"/>
  <rect x="128" y="292" width="174" height="14" rx="7" fill="#cbd5e1"/>
  <rect x="128" y="322" width="218" height="14" rx="7" fill="#94a3b8"/>
  <rect x="128" y="352" width="156" height="14" rx="7" fill="#64748b"/>
  <rect x="128" y="392" width="148" height="36" rx="18" fill="url(#accent1)"/>
  <rect x="292" y="232" width="182" height="186" rx="24" fill="#1f3758"/>
  <path d="M320 392 L356 340 L388 360 L430 288" stroke="#2dd4bf" stroke-width="16" stroke-linecap="round" stroke-linejoin="round" fill="none"/>
  <circle cx="356" cy="340" r="10" fill="#f8fafc"/>
  <circle cx="430" cy="288" r="10" fill="#f8fafc"/>
  <rect x="552" y="214" width="520" height="132" rx="24" fill="#16253e"/>
  <rect x="590" y="252" width="188" height="18" rx="9" fill="#f8fafc"/>
  <rect x="590" y="284" width="252" height="14" rx="7" fill="#94a3b8"/>
  <rect x="878" y="246" width="152" height="74" rx="20" fill="#0ea5e9"/>
  <rect x="552" y="372" width="248" height="252" rx="24" fill="#16253e"/>
  <rect x="590" y="410" width="174" height="18" rx="9" fill="#f8fafc"/>
  <rect x="590" y="446" width="118" height="12" rx="6" fill="#64748b"/>
  <rect x="590" y="476" width="150" height="12" rx="6" fill="#64748b"/>
  <rect x="590" y="506" width="132" height="12" rx="6" fill="#64748b"/>
  <rect x="824" y="372" width="248" height="252" rx="24" fill="#16253e"/>
  <path d="M866 590 L918 510 L956 538 L1020 448" stroke="#34d399" stroke-width="16" stroke-linecap="round" stroke-linejoin="round" fill="none"/>
  <circle cx="918" cy="510" r="10" fill="#f8fafc"/>
  <circle cx="1020" cy="448" r="10" fill="#f8fafc"/>
  <circle cx="866" cy="590" r="10" fill="#f8fafc"/>
  <rect x="602" y="648" width="436" height="18" rx="9" fill="#1e3a5f"/>
</svg>
